<svg width="351" height="351" viewBox="0 0 351 351" fill="none" xmlns="http://www.w3.org/2000/svg">
<path d="M65.8125 21.9375H285.188C309.319 21.9375 329.062 41.6812 329.062 65.8125V285.188C329.062 309.319 309.319 329.062 285.188 329.062H65.8125C41.6812 329.062 21.9375 309.319 21.9375 285.188V65.8125C21.9375 41.6812 41.6812 21.9375 65.8125 21.9375Z" fill="#F3F3F3"/>
<path d="M285.188 263.25L231.441 285.188L142.594 197.438L86.6531 241.312L64.7156 230.344V120.656L86.6531 109.688L142.594 153.562L230.344 65.8125L285.188 87.75V263.25ZM172.209 175.5L230.344 220.472V129.431L172.209 175.5ZM86.6531 209.503L120.656 175.5L87.75 141.497L86.6531 209.503Z" fill="#344055"/>
</svg>
